<svg xmlns:xlink="http://www.w3.org/1999/xlink" xmlns="http://www.w3.org/2000/svg" viewBox="0 0 12.808 12.808" width="12.808"  height="12.808" >
  <defs>
    <style>
      .cls-1 {
        fill: "dark";
      }
    </style>
  </defs>
  <path id="cancel" class="cls-1" d="M8.246,6.609a.283.283,0,0,1,0-.409l4.386-4.386a.632.632,0,0,0,.175-.409.632.632,0,0,0-.175-.409L11.814.175A.632.632,0,0,0,11.4,0,.531.531,0,0,0,11,.175L6.609,4.562a.283.283,0,0,1-.409,0L1.813.175A.632.632,0,0,0,1.4,0,.632.632,0,0,0,.994.175L.175.994A.632.632,0,0,0,0,1.4a.632.632,0,0,0,.175.409L4.562,6.2a.283.283,0,0,1,0,.409L.175,11a.565.565,0,0,0,0,.819l.819.819a.632.632,0,0,0,.409.175.632.632,0,0,0,.409-.175L6.2,8.246a.283.283,0,0,1,.409,0L11,12.633a.565.565,0,0,0,.819,0l.819-.819a.565.565,0,0,0,0-.819Z"/>
</svg>