<svg xmlns:xlink="http://www.w3.org/1999/xlink" xmlns="http://www.w3.org/2000/svg" width="21.763"  height="21.841" viewBox="0 0 12.499 12.5">
                        <path style="fill-rule: evenodd;" d="M684.42,649.084l-.6,1.812a1.562,1.562,0,0,1-.848.937,7.817,7.817,0,0,1-8.407-1.361c-.1-.089-.189-.178-.266-.255a7.42,7.42,0,0,1-1.172-1.484,6.307,6.307,0,0,1-.3-.563,7.649,7.649,0,0,1-.823-3.484,7.733,7.733,0,0,1,.666-3.157,1.567,1.567,0,0,1,.937-.848l1.813-.6a1.562,1.562,0,0,1,1.975.989l.781,2.343a1.562,1.562,0,0,1-.781,1.891l-.569.284a3.094,3.094,0,0,0,.792,1.312,3.054,3.054,0,0,0,1.3.781l.284-.568a1.562,1.562,0,0,1,1.892-.781l2.343.781A1.562,1.562,0,0,1,684.42,649.084Zm-1.484-.492-2.343-.781-.781,1.562a4.694,4.694,0,0,1-4.687-4.687l1.562-.781-.781-2.343-1.813.6a6.188,6.188,0,0,0-.53,2.523,6.125,6.125,0,0,0,.664,2.8,4.7,4.7,0,0,0,.234.437,5.9,5.9,0,0,0,.93,1.18c.07.07.141.141.219.211a6.249,6.249,0,0,0,6.726,1.094Z" transform="translate(-672 -639.999)" fill="#FFFFFF"></path>
                    </svg>