<svg xmlns:xlink="http://www.w3.org/1999/xlink" xmlns="http://www.w3.org/2000/svg" width="21.763"  height="21.841" viewBox="0 0 14.807 11.848">
                            <g transform="translate(0.3 -2.7)">
                                <g style="stroke-linecap: round;" transform="translate(0 0)" fill="#fff">
                                    <path style="stroke: none;" d="M 4.58779764175415 14.39745998382568 L 2.811877727508545 14.39745998382568 C 2.518457889556885 14.39745998382568 2.265787839889526 14.17821979522705 2.224157810211182 13.88749980926514 L 1.705026745796204 10.25364017486572 L 1.331937789916992 10.25364017486572 C 0.4593978524208069 10.25364017486572 -0.1500021666288376 9.705100059509277 -0.1500021666288376 8.919690132141113 L -0.1500021666288376 7.291759490966797 C -0.1500021666288376 6.47461986541748 0.5147978663444519 5.80981969833374 1.331937789916992 5.80981969833374 L 3.289735078811646 5.80981969833374 L 10.58326816558838 2.892639636993408 C 10.6532678604126 2.864329814910889 10.72765827178955 2.849869728088379 10.80382823944092 2.849869728088379 C 10.92279815673828 2.849869728088379 11.03793811798096 2.885199785232544 11.13678741455078 2.952059745788574 C 11.30015754699707 3.063079833984375 11.39751815795898 3.24688982963562 11.39751815795898 3.443929672241211 L 11.39751815795898 12.61952972412109 C 11.39751815795898 12.81655979156494 11.30015754699707 13.00037002563477 11.13707828521729 13.11120986938477 C 11.03771781921387 13.1782398223877 10.9225378036499 13.21350955963135 10.80353736877441 13.21350955963135 C 10.72858810424805 13.21350955963135 10.65444755554199 13.19921970367432 10.58319759368896 13.17103004455566 L 4.857228755950928 10.88064575195312 L 5.178477764129639 13.73699951171875 C 5.197397708892822 13.90483951568604 5.143707752227783 14.07337951660156 5.031188011169434 14.19937992095947 C 4.917847633361816 14.32540988922119 4.756367683410645 14.39745998382568 4.58779764175415 14.39745998382568 Z M 3.326773166656494 13.20949935913086 L 3.923389434814453 13.20949935913086 L 3.606360912322998 10.38010597229004 L 3.28975510597229 10.25364017486572 L 2.9048912525177 10.25364017486572 L 3.326773166656494 13.20949935913086 Z M 4.395292282104492 9.41660213470459 L 10.20955753326416 11.74265003204346 L 10.20955753326416 4.321383953094482 L 3.997837781906128 6.806073665618896 L 3.997837781906128 9.257352828979492 L 4.305953502655029 9.380504608154297 C 4.338917255401611 9.390029907226562 4.366397380828857 9.402981758117676 4.388897895812988 9.413599967956543 L 4.395292282104492 9.41660213470459 Z M 1.331937789916992 6.997779846191406 C 1.169837832450867 6.997779846191406 1.037957787513733 7.129659652709961 1.037957787513733 7.291759490966797 L 1.037957787513733 8.919690132141113 C 1.037957787513733 8.959619522094727 1.037957787513733 9.065679550170898 1.331937789916992 9.065679550170898 L 2.809867858886719 9.065679550170898 L 2.809867858886719 6.997779846191406 L 1.331937789916992 6.997779846191406 Z" fill="#fff"></path>
                                    <path style="stroke: none;" d="M 10.80383682250977 2.999866485595703 C 10.74802684783936 2.999863624572754 10.69206809997559 3.010439872741699 10.63896751403809 3.031909942626953 L 3.318607807159424 5.959819793701172 L 1.331937789916992 5.959819793701172 C 0.5978975296020508 5.959819793701172 -1.9073486328125e-06 6.557709693908691 -1.9073486328125e-06 7.291759490966797 L -1.9073486328125e-06 8.919690132141113 C -1.9073486328125e-06 9.617039680480957 0.5475778579711914 10.10363960266113 1.331937789916992 10.10363960266113 L 1.835118293762207 10.10363960266113 L 2.372637748718262 13.86623001098633 C 2.404007911682129 14.08525943756104 2.591068267822266 14.24745941162109 2.811878204345703 14.24745941162109 L 4.58779764175415 14.24745941162109 C 4.71448802947998 14.24745941162109 4.834657669067383 14.19359016418457 4.919307708740234 14.0994701385498 C 5.003367900848389 14.00533962249756 5.043627738952637 13.87983989715576 5.029417991638184 13.75374984741211 L 4.680147647857666 10.64826011657715 L 10.63837814331055 13.03154945373535 C 10.69224739074707 13.05286026000977 10.74788761138916 13.06350994110107 10.80353736877441 13.06350994110107 C 10.89055824279785 13.06350994110107 10.97816753387451 13.0374698638916 11.05275821685791 12.98715019226074 C 11.17469787597656 12.90427017211914 11.24751758575439 12.76692962646484 11.24751758575439 12.61952972412109 L 11.24751758575439 3.443929672241211 C 11.24751758575439 3.296529769897461 11.17469787597656 3.15919017791748 11.05275821685791 3.076310157775879 C 10.9780101776123 3.025753974914551 10.89112281799316 2.999871253967285 10.80383682250977 2.999866485595703 M 10.35955810546875 11.96422004699707 L 4.335618019104004 9.554289817810059 C 4.310167789459229 9.542449951171875 4.285897731781006 9.530019760131836 4.258067607879639 9.522909164428711 L 3.847837924957275 9.358940124511719 L 3.847837924957275 6.704519271850586 L 10.35955810546875 4.09982967376709 L 10.35955810546875 11.96422004699707 M 2.959867477416992 9.215680122375488 L 1.331937789916992 9.215680122375488 C 1.129487991333008 9.215680122375488 0.8879575729370117 9.164179801940918 0.8879575729370117 8.919690132141113 L 0.8879575729370117 7.291759490966797 C 0.8879575729370117 7.047279357910156 1.087457656860352 6.847779273986816 1.331937789916992 6.847779273986816 L 2.959867477416992 6.847779273986816 L 2.959867477416992 9.215680122375488 M 2.73195743560791 10.10363960266113 L 3.318607807159424 10.10363960266113 L 3.745418071746826 10.27412986755371 L 4.091137886047363 13.35949993133545 L 3.196658134460449 13.35949993133545 L 2.73195743560791 10.10363960266113 M 10.8037576675415 2.699870109558105 C 10.95286750793457 2.699870109558105 11.09708786010742 2.744110107421875 11.22083759307861 2.82781982421875 C 11.42560768127441 2.966989517211914 11.54751777648926 3.197169303894043 11.54751777648926 3.443929672241211 L 11.54751777648926 12.61952972412109 C 11.54751777648926 12.86628913879395 11.42560768127441 13.09646987915039 11.22139739990234 13.23526954650879 C 11.0967378616333 13.31937026977539 10.95253753662109 13.36351013183594 10.80353736877441 13.36351013183594 C 10.70960807800293 13.36351013183594 10.61691761016846 13.34568023681641 10.52802753448486 13.31052017211914 L 5.034311294555664 11.11303329467773 L 5.327538013458252 13.72021961212158 C 5.351227760314941 13.93039989471436 5.283987998962402 14.14148998260498 5.143067836761475 14.2992992401123 C 5.000967979431152 14.45728969573975 4.798837661743164 14.54745960235596 4.58779764175415 14.54745960235596 L 2.811878204345703 14.54745960235596 C 2.444317817687988 14.54745960235596 2.12781810760498 14.2728796005249 2.075667381286621 13.90876007080078 L 1.574934005737305 10.403639793396 L 1.331937789916992 10.403639793396 C 0.3863277435302734 10.403639793396 -0.3000020980834961 9.779549598693848 -0.3000020980834961 8.919690132141113 L -0.3000020980834961 7.291759490966797 C -0.3000020980834961 6.391909599304199 0.4320878982543945 5.659819602966309 1.331937789916992 5.659819602966309 L 3.26082706451416 5.659819602966309 L 10.52755737304688 2.753359794616699 C 10.61498832702637 2.718009948730469 10.70826816558838 2.699870109558105 10.8037576675415 2.699870109558105 Z M 10.05955791473389 11.52108383178711 L 10.05955791473389 4.542938232421875 L 4.14783763885498 6.907628059387207 L 4.14783763885498 9.155773162841797 L 4.355191230773926 9.238653182983398 C 4.395921230316162 9.251068115234375 4.428260803222656 9.266315460205078 4.452888011932373 9.277929306030273 L 4.455112457275391 9.278976440429688 L 10.05955791473389 11.52108383178711 Z M 2.659868240356445 7.14777946472168 L 1.331937789916992 7.14777946472168 C 1.252548217773438 7.14777946472168 1.187957763671875 7.212369918823242 1.187957763671875 7.291759490966797 L 1.187957763671875 8.898981094360352 C 1.213050842285156 8.90677547454834 1.259469032287598 8.915679931640625 1.331937789916992 8.915679931640625 L 2.659868240356445 8.915679931640625 L 2.659868240356445 7.14777946472168 Z M 3.260891437530518 10.403639793396 L 3.077816009521484 10.403639793396 L 3.45688009262085 13.05949974060059 L 3.755648612976074 13.05949974060059 L 3.467294216156006 10.48608779907227 L 3.260891437530518 10.403639793396 Z" fill="#fff"></path>
                                </g>
                                <g style="stroke-linecap: round;" transform="translate(-8.16 -1.224)" fill="#fff">
                                    <path style="stroke:none;" d="M 20.44382095336914 8.222221374511719 C 20.26274108886719 8.222221374511719 20.09370040893555 8.141191482543945 19.98003959655762 7.999901294708252 C 19.77536010742188 7.743841171264648 19.8169002532959 7.369171142578125 20.07234954833984 7.164321422576904 L 21.55241966247559 5.980271339416504 C 21.65786933898926 5.896621227264404 21.78936958312988 5.850771427154541 21.92317962646484 5.850771427154541 C 22.10443115234375 5.850771427154541 22.27362060546875 5.931561470031738 22.38735961914062 6.072431564331055 C 22.59222984313965 6.328701496124268 22.55068969726562 6.703381538391113 22.29523086547852 6.908221244812012 L 20.81516075134277 8.09227180480957 C 20.70751953125 8.177461624145508 20.57933044433594 8.222221374511719 20.44382095336914 8.222221374511719 Z" fill="#fff"></path>
                                    <path style="stroke: none;" d="M 20.44382095336914 8.072221755981445 C 20.54150009155273 8.072221755981445 20.63916969299316 8.040261268615723 20.72146034240723 7.975141525268555 L 22.20138931274414 6.791191577911377 C 22.39260101318359 6.637871265411377 22.42398071289062 6.358461380004883 22.27066040039062 6.166661262512207 C 22.18252944946289 6.057518005371094 22.05342483520508 6.000767707824707 21.92318153381348 6.000767707824707 C 21.82595252990723 6.000767707824707 21.72810173034668 6.03237247467041 21.64612007141113 6.097401142120361 L 20.16619110107422 7.281341552734375 C 19.97497940063477 7.434671401977539 19.94359970092773 7.714081287384033 20.09692001342773 7.905881404876709 C 20.18453979492188 8.014801025390625 20.31359100341797 8.072221755981445 20.44382095336914 8.072221755981445 M 20.44382095336914 8.372220993041992 C 20.21708106994629 8.372220993041992 20.00543975830078 8.270781517028809 19.8631706237793 8.093921661376953 C 19.60663032531738 7.773001194000244 19.65863037109375 7.303811550140381 19.9785099029541 7.047301292419434 L 21.45870971679688 5.863141536712646 C 21.59105110168457 5.758161544799805 21.75566101074219 5.700771331787109 21.92317962646484 5.700771331787109 C 22.14998054504395 5.700771331787109 22.3617000579834 5.801881313323975 22.50406074523926 5.978191375732422 C 22.76095962524414 6.299551486968994 22.70895004272461 6.768741607666016 22.38906097412109 7.025241374969482 L 20.90887069702148 8.20940113067627 C 20.7757511138916 8.314751625061035 20.61104011535645 8.372220993041992 20.44382095336914 8.372220993041992 Z" fill="#fff"></path>
                                </g>
                                <g style="stroke-linecap: round;" transform="translate(-8.16 -4.693)" fill="#fff">
                                    <path style="stroke:none;" d="M 21.92375946044922 16.72221946716309 C 21.78824043273926 16.72221946716309 21.6600399017334 16.67745018005371 21.55303001403809 16.59276008605957 L 20.07249069213867 15.4083194732666 C 19.94864082336426 15.30900955200195 19.87083053588867 15.16748905181885 19.85328102111816 15.00971984863281 C 19.83570098876953 14.85172939300537 19.88066101074219 14.69656944274902 19.97990036010742 14.57281970977783 C 20.09445953369141 14.43147945404053 20.26383018493652 14.35076904296875 20.4450798034668 14.35076904296875 C 20.57909965515137 14.35076904296875 20.71047973632812 14.39671993255615 20.81503105163574 14.48015975952148 L 22.29508972167969 15.66420936584473 C 22.55106925964355 15.86946964263916 22.5925407409668 16.24423027038574 22.3876895904541 16.49971961975098 C 22.27388000488281 16.64118957519531 22.10483932495117 16.72221946716309 21.92375946044922 16.72221946716309 Z" fill="#fff"></path>
                                    <path style="stroke: none;" d="M 20.4450798034668 14.50076675415039 C 20.31481742858887 14.50076293945312 20.18539810180664 14.55750465393066 20.09692001342773 14.66666030883789 C 19.94359970092773 14.85785865783691 19.97497940063477 15.1378698348999 20.16619110107422 15.29118919372559 L 21.64612007141113 16.47513961791992 C 21.7283992767334 16.54026031494141 21.82608032226562 16.57221984863281 21.92375946044922 16.57221984863281 C 22.05398941040039 16.57221984863281 22.18304061889648 16.51479911804199 22.27066040039062 16.40587997436523 C 22.42398071289062 16.21466827392578 22.39260101318359 15.93466949462891 22.20138931274414 15.78133964538574 L 20.72146034240723 14.59739875793457 C 20.63999557495117 14.53237915039062 20.54229927062988 14.50076866149902 20.4450798034668 14.50076675415039 M 20.44504928588867 14.20076942443848 C 20.61297035217285 14.20076942443848 20.7775993347168 14.25835990905762 20.90860939025879 14.36293029785156 L 22.3887996673584 15.54707908630371 C 22.70943069458008 15.80418968200684 22.76131057739258 16.27354049682617 22.50471115112305 16.59354972839355 C 22.36214065551758 16.77077865600586 22.15049934387207 16.87221908569336 21.92375946044922 16.87221908569336 C 21.75653076171875 16.87221908569336 21.59181022644043 16.81473922729492 21.45993995666504 16.71038055419922 L 19.97878074645996 15.52544975280762 C 19.82360076904297 15.40101909637451 19.72616958618164 15.22382926940918 19.70420074462891 15.0263090133667 C 19.68218040466309 14.82841873168945 19.7385311126709 14.6340503692627 19.86286926269531 14.47897911071777 C 20.00654029846191 14.30172920227051 20.21837997436523 14.20076942443848 20.44504928588867 14.20076942443848 Z" fill="#fff"></path>
                                </g>
                                <g style="stroke-linecap: round;" transform="translate(-8.161 -3.366)" fill="#fff">
                                    <path style="stroke:none;" d="M 21.92391777038574 12.28796100616455 L 20.44397926330566 12.28796100616455 C 20.11645889282227 12.28796100616455 19.84999847412109 12.0215015411377 19.84999847412109 11.6939811706543 C 19.84999847412109 11.3664608001709 20.11645889282227 11.10000133514404 20.44397926330566 11.10000133514404 L 21.92391777038574 11.10000133514404 C 22.25143814086914 11.10000133514404 22.51789855957031 11.3664608001709 22.51789855957031 11.6939811706543 C 22.51789855957031 12.0215015411377 22.25143814086914 12.28796100616455 21.92391777038574 12.28796100616455 Z" fill="#fff"></path>
                                    <path style="stroke: none;" d="M 20.44397926330566 11.25000095367432 C 20.19890785217285 11.25000095367432 19.99999809265137 11.44890117645264 19.99999809265137 11.6939811706543 C 19.99999809265137 11.93906116485596 20.19890785217285 12.13796138763428 20.44397926330566 12.13796138763428 L 21.92391777038574 12.13796138763428 C 22.16899871826172 12.13796138763428 22.36789894104004 11.93906116485596 22.36789894104004 11.6939811706543 C 22.36789894104004 11.44890117645264 22.16899871826172 11.25000095367432 21.92391777038574 11.25000095367432 L 20.44397926330566 11.25000095367432 M 20.44397926330566 10.95000076293945 L 21.92391777038574 10.95000076293945 C 22.33414840698242 10.95000076293945 22.66789817810059 11.28375148773193 22.66789817810059 11.6939811706543 C 22.66789817810059 12.10421085357666 22.33414840698242 12.43796157836914 21.92391777038574 12.43796157836914 L 20.44397926330566 12.43796157836914 C 20.03374862670898 12.43796157836914 19.69999885559082 12.10421085357666 19.69999885559082 11.6939811706543 C 19.69999885559082 11.28375148773193 20.03374862670898 10.95000076293945 20.44397926330566 10.95000076293945 Z" fill="#fff"></path>
                                </g>
                            </g>
                        </svg>