<svg xmlns:xlink="http://www.w3.org/1999/xlink" xmlns="http://www.w3.org/2000/svg" width="21.763"  height="21.841" viewBox="0 0 12.295 12.295">
                        <path style="fill-rule: evenodd;" d="M323.842,486.147a.768.768,0,1,0-.768-.768A.768.768,0,0,0,323.842,486.147Zm2.305,0a.768.768,0,1,0-.768-.768A.768.768,0,0,0,326.147,486.147Zm2.305,0a.768.768,0,1,0-.768-.768A.768.768,0,0,0,328.453,486.147ZM330.758,480h-9.221A1.537,1.537,0,0,0,320,481.537v9.221a1.537,1.537,0,0,0,2.389,1.279l1.921-1.279h6.448a1.537,1.537,0,0,0,1.537-1.537v-7.684A1.537,1.537,0,0,0,330.758,480Zm0,9.221h-6.916l-2.305,1.537v-9.221h9.221Z" transform="translate(-320 -480)" fill="#fff"></path>
                    </svg>