<svg xmlns:xlink="http://www.w3.org/1999/xlink" xmlns="http://www.w3.org/2000/svg" viewBox="0 0 22.266 19.789" width="22.266"  height="19.789" >
  <defs>
    <style>
      .cls-1 {
        fill: #f5f5f5;
      }

      .cls-2 {
        fill: #0a3251;
        stroke: #0a3251;
        stroke-width: 0.3px;
      }
    </style>
  </defs>
  <g id="Icon" transform="translate(-103.087 -301)">
    <path id="Path_5" data-name="Path 5" class="cls-1" d="M4.136-.026H20.618a1.648,1.648,0,0,1,1.648,1.648L19.778,18.114a1.648,1.648,0,0,1-1.648,1.648H1.648A1.648,1.648,0,0,1,0,18.114L2.488,1.622A1.648,1.648,0,0,1,4.136-.026Z" transform="translate(103.087 301.026)"/>
    <g id="noun_TV_1515278" transform="translate(97 264)">
      <path id="Path_192" data-name="Path 192" class="cls-2" d="M27.49,36.939h1.986v.5a1.49,1.49,0,0,0,1.49,1.49h1.986a1.49,1.49,0,0,0,1.49-1.49v-.5h1.986a1.49,1.49,0,0,0,1.49-1.49V29.49A1.49,1.49,0,0,0,36.429,28H27.49A1.49,1.49,0,0,0,26,29.49v5.959A1.49,1.49,0,0,0,27.49,36.939Zm5.959.5a.5.5,0,0,1-.5.5H30.966a.5.5,0,0,1-.5-.5v-.5h2.98ZM26.993,29.49a.5.5,0,0,1,.5-.5h8.939a.5.5,0,0,1,.5.5v5.959a.5.5,0,0,1-.5.5H27.49a.5.5,0,0,1-.5-.5Z" transform="translate(-13.959 13.537)"/>
    </g>
  </g>
</svg>